Coordinates
version=1
nRows=21
nColumns=34
inDegrees=no

Units are S.I. units (second, meters, Newtons, ...)
If the header above contains a line with 'inDegrees', this indicates whether rotational values are in degrees (yes) or radians (no).

endheader
time	pelvis_tilt	pelvis_list	pelvis_rotation	pelvis_tx	pelvis_ty	pelvis_tz	hip_flexion_r	hip_adduction_r	hip_rotation_r	knee_angle_r	ankle_angle_r	subtalar_angle_r	mtp_angle_r	hip_flexion_l	hip_adduction_l	hip_rotation_l	knee_angle_l	ankle_angle_l	subtalar_angle_l	mtp_angle_l	lumbar_extension	lumbar_bending	lumbar_rotation	arm_flex_r	arm_add_r	arm_rot_r	elbow_flex_r	pro_sup_r	arm_flex_l	arm_add_l	arm_rot_l	elbow_flex_l	pro_sup_l
0	0.106117	0.0372152	-0.050191	-0.128403	0.991104	-0.355	0.348062	-0.029978	-0.176106	0.163075	-0.0475835	0.119008	-0.0327897	-0.448432	0.0133692	-0.421337	0.146696	0.410954	0.585038	-0.0349152	-0.390967	-0.0852083	-0.124276	0.00518828	-0.183925	-0.167955	0.608064	2.14904	0.205963	-0.34887	-0.0159645	1.16687	2.16781
0.01	0.10998	0.0270913	-0.0450797	-0.114813	0.997045	-0.354854	0.347194	-0.0235679	-0.170705	0.193241	-0.0737427	0.0782249	-0.0327983	-0.456532	-0.00555298	-0.423825	0.169414	0.40651	0.585636	-0.034917	-0.39621	-0.0632793	-0.123371	0.00978369	-0.184634	-0.173724	0.599674	2.14862	0.185953	-0.341504	-0.0169305	1.15775	2.16399
0.02	0.112281	0.0168738	-0.0399704	-0.10132	1.00234	-0.354593	0.346925	-0.0166583	-0.166189	0.222094	-0.0943835	0.0410935	-0.0328068	-0.459544	-0.0253257	-0.423955	0.19696	0.397022	0.580937	-0.0349188	-0.399493	-0.0416717	-0.122193	0.013539	-0.185087	-0.18023	0.592506	2.14814	0.165934	-0.333575	-0.0178288	1.14572	2.16047
0.03	0.113014	0.00654467	-0.0348543	-0.0879275	1.00702	-0.354221	0.347223	-0.00923209	-0.16258	0.249549	-0.109555	0.00761749	-0.0328154	-0.457424	-0.0459729	-0.421734	0.22938	0.382482	0.570965	-0.0349206	-0.400811	-0.0203718	-0.120751	0.0164556	-0.18529	-0.187453	0.586568	2.1476	0.145919	-0.325086	-0.0186689	1.13077	2.15731
0.04	0.112164	-0.00394674	-0.0296991	-0.0746459	1.01112	-0.353745	0.347998	-0.00124417	-0.159954	0.275362	-0.119424	-0.0221979	-0.032824	-0.450057	-0.0675603	-0.417176	0.266785	0.362883	0.5558	-0.0349224	-0.400152	0.000665307	-0.119074	0.0185425	-0.185256	-0.195322	0.581878	2.14703	0.125946	-0.316049	-0.0194823	1.11286	2.15458
0.05	0.109722	-0.0146911	-0.0244339	-0.0614872	1.01466	-0.353173	0.349094	0.00737471	-0.158461	0.29911	-0.124336	-0.0483601	-0.0328326	-0.437257	-0.0901908	-0.410279	0.309325	0.338227	0.535603	-0.0349242	-0.397502	0.021524	-0.117229	0.0198268	-0.18502	-0.203689	0.578455	2.14646	0.106095	-0.306491	-0.0203341	1.09197	2.15245
0.06	0.105692	-0.0258093	-0.0189431	-0.0484678	1.01768	-0.352521	0.350315	0.0166968	-0.158312	0.320265	-0.124828	-0.0709197	-0.0328411	-0.418819	-0.113971	-0.401014	0.357108	0.308557	0.510633	-0.034926	-0.392863	0.0423209	-0.115339	0.0203651	-0.18464	-0.212305	0.576306	2.14595	0.0864861	-0.29646	-0.0213309	1.0681	2.15111
0.07	0.100103	-0.0374217	-0.0130776	-0.0356083	1.02023	-0.351809	0.351475	0.0267622	-0.159732	0.338309	-0.121603	-0.0900056	-0.0328497	-0.394568	-0.138952	-0.389313	0.410109	0.273984	0.481242	-0.0349278	-0.386262	0.0631722	-0.113567	0.0202476	-0.184198	-0.220835	0.575409	2.14554	0.0672803	-0.286027	-0.0226184	1.04129	2.15068
0.08	0.0930177	-0.0496105	-0.00667877	-0.0229331	1.02233	-0.351061	0.352448	0.0375494	-0.16289	0.352872	-0.115457	-0.10585	-0.0328583	-0.364439	-0.165064	-0.375088	0.468078	0.234723	0.447861	-0.0349297	-0.377771	0.0841539	-0.112105	0.0196001	-0.183793	-0.228873	0.575707	2.14525	0.0486628	-0.27528	-0.0243744	1.01173	2.15119
0.09	0.0845522	-0.062378	0.000384425	-0.0104679	1.02403	-0.350302	0.353179	0.0489633	-0.167838	0.363828	-0.107208	-0.118793	-0.0328668	-0.328549	-0.192084	-0.358281	0.530478	0.191128	0.410981	-0.0349315	-0.367534	0.105271	-0.111133	0.0185819	-0.183538	-0.235974	0.577098	2.14504	0.0308198	-0.264327	-0.026801	0.979707	2.15248
0.1	0.0749265	-0.0756096	0.00817079	0.00176246	1.02538	-0.349556	0.353671	0.0608438	-0.174468	0.371328	-0.0976142	-0.129255	-0.0328754	-0.287261	-0.219624	-0.338925	0.596461	0.143751	0.37115	-0.0349333	-0.355788	0.126445	-0.110788	0.0173817	-0.183539	-0.241693	0.579438	2.14472	0.0139087	-0.253288	-0.0301161	0.945716	2.15419
0.11	0.0644656	-0.0891578	0.016657	0.0137368	1.02641	-0.348837	0.353927	0.0729707	-0.182503	0.375768	-0.0873199	-0.137689	-0.032884	-0.241238	-0.24714	-0.317215	0.664895	0.0934039	0.328978	-0.0349351	-0.342886	0.147467	-0.111128	0.0162097	-0.183891	-0.245636	0.582554	2.1441	-0.00197324	-0.242292	-0.0345519	0.910412	2.15595
0.12	0.0535786	-0.102806	0.0257117	0.0254409	1.02719	-0.348147	0.353888	0.0850985	-0.191517	0.377711	-0.0768171	-0.144522	-0.0328926	-0.191454	-0.273987	-0.29355	0.734442	0.0412237	0.285155	-0.0349369	-0.32932	0.168021	-0.112103	0.0152832	-0.184661	-0.247512	0.586251	2.14306	-0.0168122	-0.231469	-0.0403327	0.874605	2.15747
0.13	0.0427503	-0.116272	0.0350922	0.0368712	1.02779	-0.347477	0.35338	0.0969842	-0.200986	0.377781	-0.0664319	-0.150098	-0.0329011	-0.139166	-0.299488	-0.268545	0.803649	-0.0112834	0.240489	-0.0349387	-0.315704	0.187715	-0.11355	0.0148086	-0.185879	-0.247168	0.590337	2.14155	-0.0306881	-0.220956	-0.0476328	0.839231	2.15857
0.14	0.0325144	-0.129226	0.0444622	0.0480354	1.0283	-0.346809	0.352098	0.108405	-0.210339	0.376565	-0.0563318	-0.154634	-0.0329097	-0.0858305	-0.323003	-0.242994	0.871066	-0.0622514	0.195923	-0.0349405	-0.302728	0.206108	-0.115198	0.0149615	-0.187531	-0.244609	0.59464	2.13964	-0.0437697	-0.210898	-0.0565248	0.80529	2.1592
0.15	0.0234022	-0.141325	0.053429	0.0589536	1.02878	-0.346117	0.349635	0.119169	-0.219022	0.37454	-0.0465521	-0.158215	-0.0329183	-0.03298	-0.343985	-0.217789	0.935367	-0.109542	0.15255	-0.0349423	-0.291096	0.22274	-0.116698	0.0158682	-0.189555	-0.240011	0.599028	2.13753	-0.0562934	-0.201449	-0.0669291	0.773771	2.15938
0.16	0.0158771	-0.152235	0.061591	0.0696551	1.02933	-0.345372	0.345542	0.129115	-0.226547	0.372029	-0.0370368	-0.160821	-0.0329269	0.0179386	-0.362017	-0.193819	0.995438	-0.150927	0.111581	-0.0349441	-0.281438	0.237178	-0.117668	0.0175898	-0.19185	-0.233706	0.603418	2.13547	-0.0685289	-0.192775	-0.0785806	0.745569	2.15919
0.17	0.0102656	-0.161659	0.0685857	0.0801722	1.03001	-0.344551	0.339422	0.138122	-0.232523	0.369208	-0.0276868	-0.162376	-0.0329355	0.0657205	-0.376846	-0.171865	1.05045	-0.184349	0.0742729	-0.0349459	-0.274226	0.249051	-0.11774	0.0201136	-0.194283	-0.226159	0.607783	2.13377	-0.0807404	-0.185045	-0.0910257	0.721399	2.15875
0.18	0.0066782	-0.169349	0.0741385	0.0905339	1.03087	-0.343631	0.331	0.146109	-0.236679	0.366126	-0.0184046	-0.162803	-0.032944	0.109515	-0.388386	-0.152514	1.09986	-0.208213	0.0418182	-0.0349477	-0.269729	0.258099	-0.1166	0.023355	-0.196707	-0.21792	0.61214	2.13268	-0.0931519	-0.178428	-0.103658	0.701727	2.15814
0.19	0.00505567	-0.175189	0.0780788	0.100767	1.03194	-0.342599	0.320185	0.153034	-0.238868	0.362735	-0.00912812	-0.162069	-0.0329526	0.148893	-0.396701	-0.136125	1.14341	-0.221652	0.0152111	-0.0349494	-0.267961	0.264172	-0.114028	0.0271697	-0.198977	-0.209571	0.616549	2.13243	-0.105919	-0.173068	-0.115792	0.686732	2.15746
0.2	0.00518272	-0.179176	0.080344	0.110892	1.0332	-0.341448	0.307081	0.158899	-0.239059	0.358934	0.000151627	-0.160213	-0.0329612	0.183844	-0.401992	-0.12282	1.18107	-0.224692	-0.00488528	-0.0349512	-0.268699	0.267261	-0.109913	0.0313721	-0.200972	-0.201663	0.62109	2.13312	-0.119114	-0.169071	-0.126759	0.676294	2.15674
